<svg width="140" height="40" viewBox="0 0 140 40" fill="none" xmlns="http://www.w3.org/2000/svg">
<path d="M51.462 26.1415C49.734 26.1415 48.384 25.7215 47.412 24.8815C46.44 24.0295 45.924 22.8235 45.864 21.2635C45.852 20.9155 45.846 20.3635 45.846 19.6075C45.846 18.8515 45.852 18.2995 45.864 17.9515C45.924 16.4275 46.446 15.2515 47.43 14.4235C48.426 13.5955 49.77 13.1815 51.462 13.1815C52.602 13.1815 53.592 13.3675 54.432 13.7395C55.284 14.1115 55.932 14.5855 56.376 15.1615C56.832 15.7375 57.072 16.3315 57.096 16.9435C57.096 17.0515 57.054 17.1415 56.97 17.2135C56.898 17.2855 56.808 17.3215 56.7 17.3215H54.072C53.952 17.3215 53.856 17.3035 53.784 17.2675C53.712 17.2315 53.652 17.1655 53.604 17.0695C53.448 16.7215 53.202 16.4215 52.866 16.1695C52.53 15.9055 52.062 15.7735 51.462 15.7735C50.034 15.7735 49.284 16.5295 49.212 18.0415C49.2 18.3775 49.194 18.8995 49.194 19.6075C49.194 20.3035 49.2 20.8255 49.212 21.1735C49.284 22.7575 50.052 23.5495 51.516 23.5495C52.224 23.5495 52.788 23.3695 53.208 23.0095C53.64 22.6375 53.856 22.0735 53.856 21.3175V20.9755H52.164C52.032 20.9755 51.924 20.9335 51.84 20.8495C51.756 20.7535 51.714 20.6395 51.714 20.5075V19.1755C51.714 19.0435 51.756 18.9355 51.84 18.8515C51.924 18.7555 52.032 18.7075 52.164 18.7075H56.7C56.832 18.7075 56.94 18.7555 57.024 18.8515C57.108 18.9355 57.15 19.0435 57.15 19.1755V21.2275C57.15 22.2475 56.916 23.1295 56.448 23.8735C55.98 24.6055 55.314 25.1695 54.45 25.5655C53.598 25.9495 52.602 26.1415 51.462 26.1415ZM63.4451 26.1415C61.9571 26.1415 60.8111 25.7875 60.0071 25.0795C59.2031 24.3715 58.7651 23.3755 58.6931 22.0915C58.6811 21.9355 58.6751 21.6655 58.6751 21.2815C58.6751 20.8975 58.6811 20.6275 58.6931 20.4715C58.7651 19.1995 59.2151 18.2095 60.0431 17.5015C60.8711 16.7815 62.0051 16.4215 63.4451 16.4215C64.8971 16.4215 66.0371 16.7815 66.8651 17.5015C67.6931 18.2095 68.1431 19.1995 68.2151 20.4715C68.2271 20.6275 68.2331 20.8975 68.2331 21.2815C68.2331 21.6655 68.2271 21.9355 68.2151 22.0915C68.1431 23.3755 67.7051 24.3715 66.9011 25.0795C66.0971 25.7875 64.9451 26.1415 63.4451 26.1415ZM63.4451 23.9455C63.9731 23.9455 64.3631 23.7895 64.6151 23.4775C64.8671 23.1535 65.0111 22.6615 65.0471 22.0015C65.0591 21.8815 65.0651 21.6415 65.0651 21.2815C65.0651 20.9215 65.0591 20.6815 65.0471 20.5615C65.0111 19.9135 64.8611 19.4275 64.5971 19.1035C64.3451 18.7795 63.9611 18.6175 63.4451 18.6175C62.4491 18.6175 61.9211 19.2655 61.8611 20.5615L61.8431 21.2815L61.8611 22.0015C61.8851 22.6615 62.0231 23.1535 62.2751 23.4775C62.5391 23.7895 62.9291 23.9455 63.4451 23.9455Z" fill="black"/>
<path d="M75.385 26.1415C73.669 26.1415 72.325 25.7275 71.353 24.8995C70.393 24.0595 69.883 22.8475 69.823 21.2635C69.811 20.9395 69.805 20.4115 69.805 19.6795C69.805 18.9355 69.811 18.3955 69.823 18.0595C69.883 16.4995 70.405 15.2995 71.389 14.4595C72.373 13.6075 73.705 13.1815 75.385 13.1815C76.441 13.1815 77.389 13.3615 78.229 13.7215C79.069 14.0695 79.729 14.5735 80.209 15.2335C80.701 15.8815 80.953 16.6435 80.965 17.5195V17.5555C80.965 17.6515 80.923 17.7355 80.839 17.8075C80.767 17.8675 80.683 17.8975 80.587 17.8975H78.157C78.001 17.8975 77.881 17.8675 77.797 17.8075C77.713 17.7355 77.641 17.6095 77.581 17.4295C77.413 16.8175 77.149 16.3915 76.789 16.1515C76.429 15.8995 75.955 15.7735 75.367 15.7735C73.951 15.7735 73.219 16.5655 73.171 18.1495C73.159 18.4735 73.153 18.9715 73.153 19.6435C73.153 20.3155 73.159 20.8255 73.171 21.1735C73.219 22.7575 73.951 23.5495 75.367 23.5495C75.955 23.5495 76.435 23.4235 76.807 23.1715C77.179 22.9075 77.437 22.4815 77.581 21.8935C77.629 21.7135 77.695 21.5935 77.779 21.5335C77.863 21.4615 77.989 21.4255 78.157 21.4255H80.587C80.695 21.4255 80.785 21.4615 80.857 21.5335C80.941 21.6055 80.977 21.6955 80.965 21.8035C80.953 22.6795 80.701 23.4475 80.209 24.1075C79.729 24.7555 79.069 25.2595 78.229 25.6195C77.389 25.9675 76.441 26.1415 75.385 26.1415ZM87.0877 26.1415C85.5997 26.1415 84.4537 25.7875 83.6497 25.0795C82.8457 24.3715 82.4077 23.3755 82.3357 22.0915C82.3237 21.9355 82.3177 21.6655 82.3177 21.2815C82.3177 20.8975 82.3237 20.6275 82.3357 20.4715C82.4077 19.1995 82.8577 18.2095 83.6857 17.5015C84.5137 16.7815 85.6477 16.4215 87.0877 16.4215C88.5397 16.4215 89.6797 16.7815 90.5077 17.5015C91.3357 18.2095 91.7857 19.1995 91.8577 20.4715C91.8697 20.6275 91.8757 20.8975 91.8757 21.2815C91.8757 21.6655 91.8697 21.9355 91.8577 22.0915C91.7857 23.3755 91.3477 24.3715 90.5437 25.0795C89.7397 25.7875 88.5877 26.1415 87.0877 26.1415ZM87.0877 23.9455C87.6157 23.9455 88.0057 23.7895 88.2577 23.4775C88.5097 23.1535 88.6537 22.6615 88.6897 22.0015C88.7017 21.8815 88.7077 21.6415 88.7077 21.2815C88.7077 20.9215 88.7017 20.6815 88.6897 20.5615C88.6537 19.9135 88.5037 19.4275 88.2397 19.1035C87.9877 18.7795 87.6037 18.6175 87.0877 18.6175C86.0917 18.6175 85.5637 19.2655 85.5037 20.5615L85.4857 21.2815L85.5037 22.0015C85.5277 22.6615 85.6657 23.1535 85.9177 23.4775C86.1817 23.7895 86.5717 23.9455 87.0877 23.9455ZM94.1136 25.9615C93.9816 25.9615 93.8736 25.9195 93.7896 25.8355C93.7056 25.7515 93.6636 25.6435 93.6636 25.5115V17.0515C93.6636 16.9195 93.7056 16.8115 93.7896 16.7275C93.8736 16.6435 93.9816 16.6015 94.1136 16.6015H96.1836C96.3156 16.6015 96.4236 16.6495 96.5076 16.7455C96.6036 16.8295 96.6516 16.9315 96.6516 17.0515V17.7715C97.3116 16.9915 98.1996 16.6015 99.3156 16.6015H100.108C100.24 16.6015 100.348 16.6435 100.432 16.7275C100.516 16.8115 100.558 16.9195 100.558 17.0515V18.9055C100.558 19.0255 100.516 19.1335 100.432 19.2295C100.348 19.3135 100.24 19.3555 100.108 19.3555H98.3616C97.8696 19.3555 97.4856 19.4935 97.2096 19.7695C96.9456 20.0335 96.8136 20.4115 96.8136 20.9035V25.5115C96.8136 25.6435 96.7656 25.7515 96.6696 25.8355C96.5856 25.9195 96.4776 25.9615 96.3456 25.9615H94.1136ZM106.178 26.1415C104.69 26.1415 103.544 25.7875 102.74 25.0795C101.936 24.3715 101.498 23.3755 101.426 22.0915C101.414 21.9355 101.408 21.6655 101.408 21.2815C101.408 20.8975 101.414 20.6275 101.426 20.4715C101.498 19.1995 101.948 18.2095 102.776 17.5015C103.604 16.7815 104.738 16.4215 106.178 16.4215C107.63 16.4215 108.77 16.7815 109.598 17.5015C110.426 18.2095 110.876 19.1995 110.948 20.4715C110.96 20.6275 110.966 20.8975 110.966 21.2815C110.966 21.6655 110.96 21.9355 110.948 22.0915C110.876 23.3755 110.438 24.3715 109.634 25.0795C108.83 25.7875 107.678 26.1415 106.178 26.1415ZM106.178 23.9455C106.706 23.9455 107.096 23.7895 107.348 23.4775C107.6 23.1535 107.744 22.6615 107.78 22.0015C107.792 21.8815 107.798 21.6415 107.798 21.2815C107.798 20.9215 107.792 20.6815 107.78 20.5615C107.744 19.9135 107.594 19.4275 107.33 19.1035C107.078 18.7795 106.694 18.6175 106.178 18.6175C105.182 18.6175 104.654 19.2655 104.594 20.5615L104.576 21.2815L104.594 22.0015C104.618 22.6615 104.756 23.1535 105.008 23.4775C105.272 23.7895 105.662 23.9455 106.178 23.9455ZM113.203 25.9615C113.071 25.9615 112.963 25.9195 112.879 25.8355C112.795 25.7515 112.753 25.6435 112.753 25.5115V17.0515C112.753 16.9195 112.795 16.8115 112.879 16.7275C112.963 16.6435 113.071 16.6015 113.203 16.6015H115.273C115.405 16.6015 115.513 16.6435 115.597 16.7275C115.693 16.8115 115.741 16.9195 115.741 17.0515V17.7355C116.065 17.3395 116.479 17.0215 116.983 16.7815C117.499 16.5415 118.081 16.4215 118.729 16.4215C119.785 16.4215 120.643 16.7815 121.303 17.5015C121.963 18.2095 122.293 19.2055 122.293 20.4895V25.5115C122.293 25.6315 122.251 25.7395 122.167 25.8355C122.083 25.9195 121.975 25.9615 121.843 25.9615H119.575C119.455 25.9615 119.347 25.9195 119.251 25.8355C119.167 25.7395 119.125 25.6315 119.125 25.5115V20.5975C119.125 20.0335 118.987 19.6015 118.711 19.3015C118.435 18.9895 118.039 18.8335 117.523 18.8335C117.019 18.8335 116.623 18.9895 116.335 19.3015C116.047 19.6015 115.903 20.0335 115.903 20.5975V25.5115C115.903 25.6315 115.861 25.7395 115.777 25.8355C115.693 25.9195 115.585 25.9615 115.453 25.9615H113.203ZM127.128 26.1415C126.492 26.1415 125.91 26.0215 125.382 25.7815C124.866 25.5295 124.458 25.1935 124.158 24.7735C123.87 24.3415 123.726 23.8675 123.726 23.3515C123.726 22.5235 124.062 21.8575 124.734 21.3535C125.418 20.8495 126.354 20.5015 127.542 20.3095L129.792 19.9675V19.7155C129.792 19.2595 129.696 18.9235 129.504 18.7075C129.312 18.4915 128.988 18.3835 128.532 18.3835C128.256 18.3835 128.028 18.4315 127.848 18.5275C127.668 18.6235 127.482 18.7555 127.29 18.9235C127.122 19.0675 126.996 19.1635 126.912 19.2115C126.876 19.3075 126.81 19.3555 126.714 19.3555H124.752C124.632 19.3555 124.53 19.3195 124.446 19.2475C124.374 19.1635 124.344 19.0675 124.356 18.9595C124.368 18.6355 124.524 18.2755 124.824 17.8795C125.136 17.4835 125.604 17.1415 126.228 16.8535C126.864 16.5655 127.644 16.4215 128.568 16.4215C130.044 16.4215 131.136 16.7515 131.844 17.4115C132.552 18.0595 132.906 18.9355 132.906 20.0395V25.5115C132.906 25.6315 132.864 25.7395 132.78 25.8355C132.696 25.9195 132.588 25.9615 132.456 25.9615H130.368C130.248 25.9615 130.14 25.9195 130.044 25.8355C129.96 25.7395 129.918 25.6315 129.918 25.5115V24.8815C129.654 25.2535 129.282 25.5595 128.802 25.7995C128.334 26.0275 127.776 26.1415 127.128 26.1415ZM127.974 24.0895C128.526 24.0895 128.97 23.9095 129.306 23.5495C129.654 23.1895 129.828 22.6615 129.828 21.9655V21.7135L128.298 21.9835C127.218 22.1755 126.678 22.5535 126.678 23.1175C126.678 23.4175 126.804 23.6575 127.056 23.8375C127.308 24.0055 127.614 24.0895 127.974 24.0895Z" fill="#EC5863"/>
<path d="M13.8507 4.38423C15.2754 3.88471 16.8412 4.55839 17.3473 5.88827C17.7346 6.90645 17.388 8.01323 16.5662 8.70083L17.0102 9.9118L17.7168 10.7271C17.878 10.9137 18.1227 11.0029 18.3679 10.9728C19.0289 10.8914 19.6858 10.8884 20.3291 10.956C20.5472 10.9791 20.764 10.9071 20.9205 10.7551L21.4304 10.2616L21.8062 9.16738C21.4864 8.72847 21.3782 8.14719 21.5678 7.59487C21.8895 6.6586 22.9405 6.1747 23.8752 6.5581C24.6805 6.88798 25.1185 7.78362 24.8828 8.61707C24.733 9.14793 24.354 9.54554 23.8875 9.74232L23.4713 10.955L23.5662 11.6231C23.5988 11.8528 23.7353 12.0534 23.9345 12.1737C24.6044 12.5803 25.2197 13.0772 25.7599 13.6518C25.9414 13.8452 26.2123 13.9281 26.4726 13.8756L27.8123 13.6066L29.3259 12.7672C29.3337 12.0229 29.7316 11.3034 30.4318 10.915C31.4905 10.3282 32.8312 10.7225 33.3954 11.7979C33.9046 12.768 33.5849 13.9875 32.6625 14.5848C31.9422 15.0503 31.0634 15.0332 30.385 14.6357L28.8624 15.4796L28.0121 16.3826C27.7839 16.6249 27.7026 16.9676 27.7897 17.2884C27.7902 17.2903 27.7906 17.2915 27.7911 17.2934C27.94 17.8463 28.0305 18.4018 28.0679 18.9526C28.0895 19.2806 28.2753 19.5758 28.5661 19.7326L29.6758 20.3308L31.8752 20.7456C32.2629 20.408 32.797 20.2446 33.3428 20.3471C34.3214 20.5319 34.9513 21.5003 34.7006 22.4752C34.485 23.3101 33.6624 23.8658 32.8022 23.7565C32.2156 23.6819 31.742 23.3293 31.4876 22.8553L29.2739 22.4383L27.9085 22.6044C27.6568 22.6356 27.4371 22.793 27.3344 23.0235C26.9259 23.9335 26.3622 24.7703 25.6662 25.4928C25.4933 25.6723 25.4284 25.9293 25.4911 26.1699L25.8305 27.4799L26.6682 28.7898C27.5898 28.6519 28.5487 29.0491 29.0806 29.8812C29.7957 30.9989 29.4714 32.479 28.3583 33.2002C27.2459 33.9212 25.7321 33.6074 25.003 32.5036C24.4925 31.7309 24.4869 30.7775 24.9007 30.0212L24.0114 28.631L22.9179 27.7339C22.7559 27.6003 22.5353 27.565 22.3377 27.6353C22.1184 27.7133 21.8947 27.7831 21.666 27.844C20.4234 28.1752 19.1704 28.2179 17.9787 28.0154C17.804 27.9861 17.6254 28.0357 17.4917 28.1512L16.9049 28.6597L16.4685 29.7315C16.7637 30.1878 16.8392 30.7738 16.6192 31.3146C16.2455 32.2322 15.169 32.6572 14.2574 32.2229C13.4724 31.8491 13.0846 30.9305 13.3664 30.1112C13.5458 29.5894 13.9457 29.2133 14.4227 29.0429L14.9061 27.8549L14.8163 26.8116C13.9445 26.2672 13.1686 25.5686 12.5342 24.7429L11.043 24.8897L9.64736 25.5779C9.65645 26.5113 9.17466 27.3995 8.32902 27.8293C7.1341 28.4362 5.66632 27.8989 5.05102 26.6286C4.43588 25.359 4.90505 23.8376 6.09996 23.2307C6.99417 22.7764 8.04057 22.9628 8.76864 23.618L10.0849 22.9686L10.9983 21.9918C11.058 21.9278 11.0801 21.8379 11.0575 21.7539L11.0571 21.7526C10.635 20.1857 10.6781 18.6019 11.1016 17.1462C11.1243 17.0663 11.1072 16.9801 11.0534 16.9166L10.2653 15.9781L8.56742 15.0897C8.09976 15.2949 7.54535 15.2944 7.05777 15.039C6.17695 14.5776 5.85956 13.4703 6.3846 12.6112C6.84554 11.858 7.82731 11.572 8.62453 11.9581C9.14057 12.208 9.47346 12.6752 9.57187 13.1921L11.2697 14.0805L12.4783 14.1938C12.5622 14.202 12.6439 14.1666 12.6972 14.1016C13.2453 13.4267 13.8978 12.831 14.6391 12.3422C14.8424 12.2075 14.9689 11.9842 14.9721 11.7409L14.9845 10.6473L14.5109 9.35687C13.4839 9.28313 12.555 8.66322 12.1868 7.69612C11.6807 6.36624 12.4258 4.88311 13.8507 4.38423Z" fill="#EC5863"/>
<path d="M25.6196 17.8721C24.7028 14.4692 21.1857 12.4498 17.764 13.3616C14.3424 14.2734 12.3118 17.7711 13.2286 21.174C14.1455 24.5769 17.6625 26.5963 21.0842 25.6845C24.5059 24.7727 26.5364 21.275 25.6196 17.8721Z" fill="#F58A97"/>
<path d="M20.5782 23.8065C17.4775 24.6328 14.2986 23.0521 13.0471 20.2159C13.0825 20.5347 13.1426 20.8547 13.2286 21.174C14.1455 24.5769 17.6624 26.5963 21.0842 25.6845C24.5059 24.7727 26.5365 21.275 25.6196 17.8721C25.5336 17.5528 25.4247 17.2458 25.2951 16.9521C25.6371 20.0305 23.6789 22.9802 20.5782 23.8065Z" fill="#F07281"/>
<path d="M10.9539 32.8915C10.6928 31.9224 9.69122 31.3474 8.71682 31.607C7.74242 31.8667 7.16417 32.8627 7.42526 33.8318C7.68635 34.8008 8.68791 35.3759 9.66231 35.1162C10.6367 34.8566 11.215 33.8605 10.9539 32.8915Z" fill="#EB5569"/>
<path d="M33.7404 27.3335C33.568 26.6934 32.9064 26.3135 32.2628 26.4851C31.6192 26.6566 31.2373 27.3145 31.4097 27.9545C31.5822 28.5946 32.2437 28.9744 32.8873 28.8029C33.5309 28.6314 33.9129 27.9735 33.7404 27.3335Z" fill="#EB5569"/>
<path d="M30.4727 5.39767C30.2187 4.4549 29.2443 3.89541 28.2963 4.14803C27.3483 4.40064 26.7858 5.36969 27.0398 6.31246C27.2938 7.25523 28.2682 7.81472 29.2162 7.5621C30.1641 7.30949 30.7267 6.34044 30.4727 5.39767Z" fill="#EB5569"/>
<path d="M19.8253 21.4432C19.5885 20.5642 18.6801 20.0426 17.7963 20.2782C16.9125 20.5137 16.388 21.4171 16.6248 22.2961C16.8616 23.175 17.77 23.6966 18.6538 23.4611C19.5376 23.2256 20.0621 22.3221 19.8253 21.4432Z" fill="#EB5569"/>
<path d="M23.9406 18.9773C23.7794 18.3791 23.1611 18.024 22.5595 18.1843C21.958 18.3446 21.601 18.9596 21.7622 19.5578C21.9234 20.1561 22.5417 20.5111 23.1433 20.3508C23.7448 20.1905 24.1018 19.5756 23.9406 18.9773Z" fill="#EB5569"/>
<path d="M19.5876 16.4916C19.4523 15.9892 18.9331 15.6911 18.4279 15.8257C17.9228 15.9603 17.623 16.4767 17.7583 16.9791C17.8937 17.4814 18.4129 17.7796 18.9181 17.645C19.4232 17.5104 19.723 16.994 19.5876 16.4916Z" fill="#EB5569"/>
</svg>
